<svg width="1440" height="288" viewBox="0 0 1440 288" fill="none" xmlns="http://www.w3.org/2000/svg">
<path fill-rule="evenodd" clip-rule="evenodd" d="M0 0L26.4 36C52.8 72 106.8 144 159.6 162C213.6 180 266.4 144 320.4 138C373.2 132 427.2 156 480 174C532.8 192 586.8 204 639.6 204C693.6 204 746.4 192 800.4 174C853.2 156 907.2 132 960 138C1012.8 144 1066.8 180 1119.6 186C1173.6 192 1226.4 168 1280.4 150C1333.2 132 1387.2 120 1413.6 114L1440 108V288H1413.6C1387.2 288 1333.2 288 1280.4 288C1226.4 288 1173.6 288 1119.6 288C1066.8 288 1012.8 288 960 288C907.2 288 853.2 288 800.4 288C746.4 288 693.6 288 639.6 288C586.8 288 532.8 288 480 288C427.2 288 373.2 288 320.4 288C266.4 288 213.6 288 159.6 288C106.8 288 52.8 288 26.4 288H0V0Z" fill="#0099FF"/>
</svg>
